<?xml version="1.0" encoding="UTF-8"?>
<svg version="1.1" viewBox="0 0 24 24" xmlns="http://www.w3.org/2000/svg">
<circle cx="12" cy="12" r="10" fill="#007BFF"/>
<path d="m12 16.5c2.485 0 4.5-2.015 4.5-4.5s-2.015-4.5-4.5-4.5-4.5 2.015-4.5 4.5 2.015 4.5 4.5 4.5zm-0.5-7.5h1v4h-1z" fill="#FFF"/>
<path d="m12 7c-2.75 0-5 2.25-5 5s2.25 5 5 5 5-2.25 5-5-2.25-5-5-5zm-0.5 7.5c-0.2761 0-0.5-0.2239-0.5-0.5v-4.5c0-0.2761 0.2239-0.5 0.5-0.5s0.5 0.2239 0.5 0.5v4.5c0 0.2761-0.2239 0.5-0.5 0.5z" fill="#007BFF"/>
</svg>
